<?xml version="1.0"?><!DOCTYPE svg  PUBLIC '-//W3C//DTD SVG 1.1//EN'  'http://www.w3.org/Graphics/SVG/1.1/DTD/svg11.dtd'><svg height="512px" style="enable-background:new 0 0 512 512;" version="1.1" viewBox="0 0 512 512" width="512px" xml:space="preserve" xmlns="http://www.w3.org/2000/svg" xmlns:xlink="http://www.w3.org/1999/xlink"><g id="_x31_06_x2C__sun_x2C__weather_x2C__sunset_x2C__sunrise_x2C__summer"><g><path d="M260.427,87.864c0,2.411-1.979,4.427-4.427,4.427c-2.446,0-4.425-2.016-4.425-4.427V75.844    c0-2.447,1.979-4.426,4.425-4.426c2.447,0,4.427,1.979,4.427,4.426V87.864z M364.972,58.426c1.224-2.123,3.924-2.843,6.047-1.619    c2.087,1.223,2.806,3.923,1.583,6.047l-15.15,26.271c-1.225,2.124-3.924,2.843-6.047,1.618c-2.087-1.223-2.807-3.922-1.62-6.045    L364.972,58.426z M343.883,112.588c-1.223,2.087-3.924,2.807-6.01,1.619c-2.123-1.224-2.843-3.922-1.619-6.045l6.01-10.365    c1.223-2.123,3.922-2.844,6.01-1.619c2.123,1.224,2.843,3.922,1.619,6.01L343.883,112.588z M449.147,139.398    c2.123-1.223,4.821-0.504,6.047,1.584c1.186,2.123,0.467,4.822-1.62,6.046l-26.307,15.15c-2.089,1.224-4.787,0.505-6.011-1.583    c-1.223-2.123-0.503-4.822,1.62-6.046L449.147,139.398z M403.84,175.746c-2.124,1.225-4.824,0.504-6.047-1.619    c-1.224-2.088-0.504-4.822,1.619-6.01l10.4-6.01c2.088-1.224,4.787-0.504,6.01,1.619c1.224,2.087,0.504,4.787-1.619,6.01    L403.84,175.746z M481.573,251.572c2.446,0,4.426,1.98,4.426,4.428c0,2.411-1.979,4.426-4.426,4.426h-30.338    c-2.448,0-4.428-2.015-4.428-4.426c0-2.447,1.979-4.428,4.428-4.428H481.573z M424.137,260.426c-2.448,0-4.428-2.015-4.428-4.426    c0-2.447,1.979-4.428,4.428-4.428h12.02c2.411,0,4.426,1.98,4.426,4.428c0,2.411-2.015,4.426-4.426,4.426H424.137z     M453.574,364.971c2.087,1.188,2.806,3.923,1.62,6.01c-1.226,2.123-3.924,2.844-6.047,1.62l-26.271-15.188    c-2.123-1.224-2.843-3.923-1.62-6.01c1.224-2.124,3.922-2.843,6.011-1.619L453.574,364.971z M399.412,343.883    c-2.123-1.225-2.843-3.924-1.619-6.047c1.223-2.087,3.923-2.807,6.047-1.619l10.363,6.01c2.123,1.225,2.843,3.923,1.619,6.046    c-1.223,2.087-3.922,2.807-6.01,1.584L399.412,343.883z M372.602,449.146c1.223,2.087,0.504,4.787-1.583,6.01    c-2.123,1.224-4.823,0.505-6.047-1.619l-15.188-26.271c-1.187-2.124-0.467-4.823,1.62-6.046c2.123-1.188,4.822-0.468,6.047,1.619    L372.602,449.146z M336.254,403.802c-1.224-2.087-0.504-4.822,1.619-6.011c2.086-1.223,4.787-0.503,6.01,1.584l6.01,10.4    c1.224,2.088,0.504,4.822-1.619,6.011c-2.088,1.224-4.787,0.503-6.01-1.584L336.254,403.802z M260.427,481.571    c0,2.412-1.979,4.428-4.427,4.428c-2.446,0-4.425-2.016-4.425-4.428v-30.374c0-2.446,1.979-4.426,4.425-4.426    c2.447,0,4.427,1.979,4.427,4.426V481.571z M251.575,424.135c0-2.447,1.979-4.426,4.425-4.426c2.447,0,4.427,1.979,4.427,4.426    v11.984c0,2.447-1.979,4.426-4.427,4.426c-2.446,0-4.425-1.979-4.425-4.426V424.135z M147.03,453.537    c-1.188,2.124-3.924,2.843-6.01,1.619c-2.123-1.223-2.844-3.923-1.62-6.01l15.186-26.307c1.225-2.087,3.924-2.808,6.01-1.619    c2.123,1.223,2.844,3.922,1.62,6.046L147.03,453.537z M168.119,399.375c1.223-2.087,3.922-2.807,6.045-1.584    c2.088,1.188,2.808,3.924,1.584,6.011l-5.975,10.4c-1.223,2.087-3.922,2.808-6.045,1.584c-2.088-1.188-2.808-3.923-1.62-6.011    L168.119,399.375z M62.853,372.601c-2.086,1.224-4.785,0.503-6.01-1.62c-1.223-2.087-0.503-4.822,1.62-6.01l26.272-15.187    c2.086-1.224,4.822-0.505,6.045,1.619c1.188,2.087,0.468,4.786-1.62,6.01L62.853,372.601z M108.197,336.217    c2.088-1.188,4.787-0.468,6.01,1.619c1.225,2.123,0.505,4.822-1.583,6.047l-10.4,5.974c-2.123,1.223-4.822,0.503-6.045-1.584    c-1.188-2.123-0.469-4.821,1.618-6.046L108.197,336.217z M30.429,260.426c-2.448,0-4.427-2.015-4.427-4.426    c0-2.447,1.979-4.428,4.427-4.428h30.373c2.448,0,4.427,1.98,4.427,4.428c0,2.411-1.979,4.426-4.427,4.426H30.429z     M87.865,251.572c2.448,0,4.427,1.98,4.427,4.428c0,2.411-1.979,4.426-4.427,4.426H75.882c-2.448,0-4.427-2.015-4.427-4.426    c0-2.447,1.979-4.428,4.427-4.428H87.865z M58.462,147.028c-2.123-1.224-2.843-3.923-1.62-6.046    c1.225-2.088,3.924-2.807,6.01-1.584L89.16,154.55c2.088,1.224,2.808,3.923,1.62,6.046c-1.223,2.088-3.959,2.807-6.045,1.583    L58.462,147.028z M112.625,168.117c2.088,1.188,2.808,3.922,1.583,6.01c-1.223,2.123-3.922,2.844-6.01,1.619l-10.4-6.01    c-2.086-1.223-2.806-3.923-1.618-6.01c1.223-2.123,3.922-2.843,6.045-1.619L112.625,168.117z M139.4,62.854    c-1.225-2.124-0.503-4.824,1.62-6.047c2.086-1.224,4.822-0.504,6.01,1.619l15.186,26.271c1.225,2.123,0.503,4.822-1.62,6.045    c-2.086,1.225-4.786,0.506-6.01-1.618L139.4,62.854z M175.748,108.162c1.223,2.123,0.504,4.821-1.584,6.045    c-2.123,1.188-4.822,0.468-6.045-1.619l-6.01-10.4c-1.188-2.088-0.468-4.786,1.62-6.01c2.124-1.225,4.822-0.504,6.045,1.619    L175.748,108.162z M256,111.725c189.764,0,189.764,288.55,0,288.55c-79.676,0-144.275-64.597-144.275-144.274    S176.324,111.725,256,111.725z M251.575,30.428c0-2.447,1.979-4.426,4.425-4.426c2.447,0,4.427,1.979,4.427,4.426v30.338    c0,2.447-1.979,4.426-4.427,4.426c-2.446,0-4.425-1.979-4.425-4.426V30.428z"/></g></g><g id="Layer_1"/></svg>